<svg width="115" height="104" viewBox="0 0 115 104" fill="none" xmlns="http://www.w3.org/2000/svg">
<path d="M83 51C83 64.8071 71.8071 76 58 76C44.1929 76 33 64.8071 33 51C33 37.1929 44.1929 26 58 26C71.8071 26 83 37.1929 83 51Z" fill="#FFFFAA"/>
<path d="M81 51C81 38.2975 70.7025 28 58 28C45.2975 28 35 38.2975 35 51C35 63.7025 45.2975 74 58 74V76C44.1929 76 33 64.8071 33 51C33 37.1929 44.1929 26 58 26C71.8071 26 83 37.1929 83 51C83 64.8071 71.8071 76 58 76V74C70.7025 74 81 63.7025 81 51Z" fill="#CCCCCC"/>
<path d="M39.0442 10.8253C42.496 16.804 43.5494 22.658 41.3971 23.9006C39.2448 25.1433 34.7018 21.304 31.25 15.3253C27.7982 9.34666 26.7448 3.49264 28.8971 2.25C31.0494 1.00736 35.5924 4.84666 39.0442 10.8253Z" fill="#FFFFAA"/>
<path d="M86.5442 15.3253C83.0924 21.304 78.5494 25.1433 76.3971 23.9006C74.2448 22.658 75.2982 16.804 78.75 10.8253C82.2018 4.84666 86.7448 1.00736 88.8971 2.25C91.0494 3.49264 89.996 9.34666 86.5442 15.3253Z" fill="#FFFFAA"/>
<path d="M102.5 56C95.5964 56 90 53.9853 90 51.5C90 49.0147 95.5964 47 102.5 47C109.404 47 115 49.0147 115 51.5C115 53.9853 109.404 56 102.5 56Z" fill="#FFFFAA"/>
<path d="M74.75 92.3875C71.2982 86.4088 70.2448 80.5548 72.3971 79.3122C74.5494 78.0695 79.0924 81.9088 82.5442 87.8875C85.996 93.8662 87.0494 99.7202 84.8971 100.963C82.7448 102.205 78.2018 98.3662 74.75 92.3875Z" fill="#FFFFAA"/>
<path d="M12.5 47C19.4036 47 25 49.0147 25 51.5C25 53.9853 19.4036 56 12.5 56C5.59644 56 0 53.9853 0 51.5C0 49.0147 5.59644 47 12.5 47Z" fill="#FFFFAA"/>
<path d="M33.25 87.8875C36.7018 81.9088 41.2448 78.0695 43.3971 79.3122C45.5494 80.5548 44.496 86.4088 41.0442 92.3875C37.5924 98.3662 33.0494 102.205 30.8971 100.963C28.7448 99.7202 29.7982 93.8662 33.25 87.8875Z" fill="#FFFFAA"/>
</svg>
